<svg width="409" height="270" viewBox="0 0 409 270" fill="none" xmlns="http://www.w3.org/2000/svg">
<g clip-path="url(#clip0_81_1153)">
<path d="M12.9625 207.224C14.9894 186.161 27.2403 165.135 46.7327 157.78C39.5299 179.596 40.1387 203.303 48.4514 224.706C51.6867 232.948 56.1281 241.773 53.5001 250.236C51.8651 255.502 47.6405 259.61 42.8678 262.235C38.0949 264.861 32.7574 266.193 27.4865 267.5L26.4658 268.406C17.5555 249.285 10.9356 228.287 12.9625 207.224Z" fill="#F0F0F0"/>
<path d="M46.9381 158.172C35.9324 171.397 29.0054 188.288 27.7942 205.604C27.5324 209.347 27.5868 213.168 28.4828 216.827C29.3831 220.387 31.2034 223.637 33.7545 226.238C36.0853 228.713 38.7508 230.969 40.4502 233.977C42.2415 237.148 42.4007 240.8 41.3183 244.248C39.994 248.465 37.26 251.947 34.4702 255.257C31.3727 258.933 28.0981 262.7 26.8642 267.497C26.7147 268.078 25.8377 267.808 25.987 267.227C28.1337 258.883 35.9103 253.969 39.4853 246.409C41.1535 242.881 41.7876 238.821 40.0461 235.19C38.5232 232.015 35.7763 229.686 33.3951 227.202C30.8948 224.593 28.955 221.709 27.9038 218.195C26.8284 214.6 26.6272 210.773 26.7939 207.04C27.2339 198.575 28.9784 190.234 31.9635 182.321C35.3212 173.271 40.1748 164.873 46.3142 157.489C46.6944 157.032 47.3158 157.718 46.9381 158.172Z" fill="white"/>
<path d="M27.8962 199.954C25.0481 199.33 22.5108 197.695 20.7373 195.342C18.9638 192.988 18.0697 190.07 18.2147 187.108C18.2217 186.987 18.2744 186.874 18.3619 186.792C18.4493 186.71 18.5645 186.665 18.6833 186.668C18.8021 186.671 18.9152 186.721 18.9986 186.807C19.0821 186.893 19.1295 187.009 19.1309 187.13C18.9909 189.888 19.824 192.607 21.4798 194.794C23.1357 196.982 25.5052 198.496 28.1607 199.061C28.7376 199.185 28.4698 200.077 27.8962 199.954Z" fill="white"/>
<path d="M32.4103 225.142C37.4424 221.899 41.089 216.845 42.6229 210.986C42.7744 210.405 43.6515 210.675 43.5001 211.255C41.8927 217.349 38.0873 222.601 32.8435 225.964C32.3435 226.284 31.913 225.461 32.4103 225.142Z" fill="white"/>
<path d="M36.1936 174.132C37.2461 174.607 38.3982 174.809 39.5462 174.719C40.6943 174.629 41.8025 174.25 42.7712 173.617C43.267 173.29 43.697 174.114 43.2045 174.439C42.131 175.134 40.9066 175.55 39.6384 175.653C38.3701 175.755 37.0966 175.539 35.9291 175.025C35.815 174.986 35.7199 174.904 35.663 174.796C35.6061 174.688 35.5917 174.562 35.6227 174.444C35.6583 174.326 35.7382 174.227 35.8451 174.168C35.952 174.11 36.0773 174.097 36.1936 174.132Z" fill="white"/>
<path d="M107.642 193.689C107.338 193.902 107.034 194.115 106.73 194.336C102.659 197.219 98.8251 200.433 95.2655 203.948C94.9861 204.216 94.7068 204.491 94.4355 204.766C85.9483 213.327 79.0962 223.419 74.2274 234.527C72.294 238.949 70.6938 243.515 69.4408 248.184C67.7106 254.632 66.3387 261.764 62.7235 267.097C62.3525 267.658 61.9477 268.195 61.5115 268.704L27.6306 269.604C27.5526 269.566 27.4745 269.537 27.3961 269.5L26.0449 269.599C26.093 269.353 26.1481 269.1 26.1962 268.854C26.2235 268.712 26.2584 268.569 26.2857 268.427C26.3063 268.332 26.3273 268.236 26.3406 268.15C26.3473 268.118 26.3544 268.086 26.3614 268.062C26.3746 267.975 26.396 267.896 26.4095 267.817C26.7135 266.399 27.0278 264.981 27.3524 263.563C27.3522 263.555 27.3522 263.555 27.3596 263.547C29.8602 252.747 33.2685 242.064 38.161 232.248C38.3083 231.952 38.455 231.649 38.6177 231.354C40.8472 226.941 43.4271 222.722 46.3317 218.738C47.9291 216.561 49.6337 214.468 51.4389 212.467C56.1132 207.306 61.5557 202.925 67.5671 199.486C79.5516 192.631 93.5559 189.755 106.645 193.401C106.98 193.494 107.307 193.588 107.642 193.689Z" fill="#F0F0F0"/>
<path d="M107.577 194.129C90.9688 197.943 75.4494 207.183 64.2424 220.266C61.8195 223.094 59.6034 226.178 58.1548 229.649C56.7683 233.044 56.3 236.754 56.7983 240.395C57.196 243.799 57.9901 247.235 57.568 250.678C57.1231 254.308 55.0904 257.322 52.1875 259.411C48.6358 261.967 44.3939 263.071 40.2088 264.004C35.5621 265.04 30.7194 266.041 26.8978 269.114C26.4347 269.486 25.8943 268.733 26.3566 268.361C33.0056 263.014 42.1208 263.857 49.4459 260.013C52.8639 258.219 55.7716 255.365 56.5281 251.399C57.1897 247.93 56.3738 244.387 55.9419 240.944C55.4883 237.328 55.6449 233.837 56.8837 230.386C58.1509 226.857 60.2532 223.678 62.5945 220.799C67.9514 214.311 74.2772 208.72 81.34 204.232C89.3728 199.064 98.2147 195.333 107.483 193.201C108.057 193.069 108.147 193.998 107.577 194.129Z" fill="white"/>
<path d="M67.6648 215.818C65.76 213.573 64.7008 210.713 64.6765 207.747C64.6521 204.781 65.6641 201.903 67.5317 199.626C67.9111 199.167 68.63 199.746 68.2501 200.205C66.5071 202.322 65.5647 205.003 65.5929 207.765C65.6212 210.527 66.6182 213.188 68.4041 215.267C68.7917 215.719 68.0501 216.267 67.6648 215.818Z" fill="white"/>
<path d="M56.3734 238.696C62.309 239.191 68.2099 237.39 72.8994 233.653C73.3637 233.282 73.9043 234.035 73.4405 234.405C68.5535 238.286 62.4089 240.147 56.2332 239.618C55.6446 239.567 55.788 238.645 56.3734 238.696Z" fill="white"/>
<path d="M89.5603 200.286C90.1195 201.311 90.92 202.178 91.8899 202.81C92.8597 203.442 93.9686 203.819 95.1168 203.906C95.7057 203.95 95.5618 204.871 94.9767 204.828C93.7085 204.725 92.4844 204.308 91.4114 203.612C90.3383 202.916 89.4489 201.963 88.8209 200.837C88.753 200.736 88.7255 200.612 88.7439 200.491C88.7623 200.37 88.8252 200.261 88.92 200.185C89.0183 200.113 89.1406 200.083 89.2605 200.101C89.3804 200.12 89.4881 200.187 89.5603 200.286Z" fill="white"/>
<path d="M306.493 18.4807C305.987 16.96 299.644 11.7907 303.531 10.9218L306.719 15.2493L321.375 0.328491L322.849 1.82917L306.493 18.4807Z" fill="#7FC7FF"/>
<path d="M306.493 69.2176C305.987 67.6969 299.644 62.5276 303.531 61.6587L306.719 65.9861L321.375 51.0654L322.849 52.566L306.493 69.2176Z" fill="#7FC7FF"/>
<path d="M306.493 120.679C305.987 119.159 299.644 113.989 303.531 113.12L306.719 117.448L321.375 102.527L322.849 104.028L306.493 120.679Z" fill="#7FC7FF"/>
<path d="M292.997 79.0738C295.495 79.0738 297.52 77.0124 297.52 74.4695C297.52 71.9266 295.495 69.8652 292.997 69.8652C290.499 69.8652 288.475 71.9266 288.475 74.4695C288.475 77.0124 290.499 79.0738 292.997 79.0738Z" fill="#3F3D56"/>
<path d="M292.997 28.8867C295.495 28.8867 297.52 26.8253 297.52 24.2824C297.52 21.7395 295.495 19.678 292.997 19.678C290.499 19.678 288.475 21.7395 288.475 24.2824C288.475 26.8253 290.499 28.8867 292.997 28.8867Z" fill="#3F3D56"/>
<path d="M409 13.6924H336.187V14.6133H409V13.6924Z" fill="#3F3D56"/>
<path d="M295.259 132.573C297.756 132.573 299.781 130.512 299.781 127.969C299.781 125.426 297.756 123.365 295.259 123.365C292.761 123.365 290.736 125.426 290.736 127.969C290.736 130.512 292.761 132.573 295.259 132.573Z" fill="#3F3D56"/>
<path d="M409 64.4292H336.187V65.3501H409V64.4292Z" fill="#3F3D56"/>
<path d="M409 115.891H336.187V116.812H409V115.891Z" fill="#3F3D56"/>
<path d="M317.916 127.54H295.303V104.058H310.68V104.979H296.207V126.619H317.011V116.029H317.916V127.54Z" fill="#3F3D56"/>
<path d="M317.916 75.9713H295.303V52.4893H310.68V53.4101H296.207V75.0504H317.011V64.4605H317.916V75.9713Z" fill="#3F3D56"/>
<path d="M317.916 23.482H295.303V0H310.68V0.920864H296.207V22.5612H317.011V11.9712H317.916V23.482Z" fill="#3F3D56"/>
<path d="M170.275 83.6935C170.275 83.6935 164.232 109.672 171.618 109.672C179.005 109.672 196.463 80.2753 196.463 80.2753L190.42 72.7554L179.573 88.0877L179.005 80.2754L170.275 83.6935Z" fill="#A0616A"/>
<path d="M194.853 81.4046C198.1 81.4046 200.732 78.7248 200.732 75.419C200.732 72.1133 198.1 69.4334 194.853 69.4334C191.606 69.4334 188.974 72.1133 188.974 75.419C188.974 78.7248 191.606 81.4046 194.853 81.4046Z" fill="#A0616A"/>
<path d="M165.151 260.627L172.977 260.626L176.7 229.894L165.15 229.895L165.151 260.627Z" fill="#A0616A"/>
<path d="M164.876 268.938L188.941 268.937V268.627C188.941 266.098 187.954 263.673 186.198 261.884C184.441 260.096 182.058 259.091 179.574 259.091H179.574L175.178 255.696L166.976 259.092L164.875 259.092L164.876 268.938Z" fill="#2F2E41"/>
<path d="M80.9705 250.686L87.9727 254.244L104.784 228.439L94.449 223.188L80.9705 250.686Z" fill="#A0616A"/>
<path d="M77.0779 257.998L98.6111 268.938L98.747 268.661C99.8562 266.398 100.037 263.779 99.2498 261.38C98.4624 258.982 96.7715 256.999 94.5488 255.87L94.5482 255.87L92.1043 250.833L83.2762 250.143L81.3965 249.188L77.0779 257.998Z" fill="#2F2E41"/>
<path d="M257.716 268.968H0V270H257.716V268.968Z" fill="#CCCCCC"/>
<path d="M114.555 130.822C114.555 130.822 111.427 169.106 110.756 177.309C110.296 182.452 109.167 187.51 107.399 192.349C107.399 192.349 106.056 195.084 106.056 197.819L90.8351 225.98C90.8351 225.98 86.184 229.461 86.8555 232.195C87.5269 234.93 84.0513 236.57 84.0513 236.57L100.08 239.715C100.08 239.715 99.4083 237.665 101.423 236.981C103.437 236.297 105.041 230.368 105.041 230.368L127.543 193.033L143.659 158.851C143.659 158.851 153.06 189.615 155.074 193.033C155.074 193.033 162.461 231.317 163.804 234.735C165.147 238.153 165.818 238.153 165.147 239.52C164.475 240.888 164.475 242.255 165.147 242.939C165.818 243.622 178.577 242.939 178.577 242.939L175.219 194.4L169.176 136.291L138.287 126.72L114.555 130.822Z" fill="#2F2E41"/>
<path d="M144.796 39.4276C152.584 39.4276 158.898 33 158.898 25.0712C158.898 17.1425 152.584 10.7149 144.796 10.7149C137.008 10.7149 130.695 17.1425 130.695 25.0712C130.695 33 137.008 39.4276 144.796 39.4276Z" fill="#A0616A"/>
<path d="M170.519 60.4078L153.732 50.0534C153.732 50.0534 153.267 43.6235 148.484 43.321C146.082 43.1691 142.479 42.9369 137.071 42.5819C135.928 42.5069 135.157 48.8724 133.848 48.7861L116.128 53.5715L118.814 100.059C118.814 100.059 114.785 118.517 116.128 121.935C117.471 125.353 112.77 126.72 114.113 127.404C115.456 128.088 114.113 132.873 114.113 132.873C114.113 132.873 140.302 146.546 169.176 136.291L166.49 127.404C166.855 126.242 166.924 125.005 166.689 123.809C166.454 122.612 165.923 121.497 165.147 120.568C165.147 120.568 167.833 116.466 164.475 113.048C164.475 113.048 165.818 106.895 162.461 104.16L161.789 94.5896L163.804 89.8041L170.519 60.4078Z" fill="#E6E6E6"/>
<path d="M132.56 33.2727L132.166 32.3406C132.115 32.2201 127.128 20.2178 131.548 12.8145C133.595 9.38707 137.315 7.45204 142.607 7.06355C150.886 6.45406 156.553 8.45359 159.454 13.0024C159.94 13.7733 160.213 14.6634 160.245 15.5791C160.277 16.4948 160.065 17.4023 159.633 18.2061C159.201 19.0099 158.565 19.6804 157.79 20.147C157.016 20.6136 156.132 20.8592 155.232 20.8578H155.121L153.599 18.8468L153.511 19.0424C152.96 20.2555 151.695 20.9197 150.214 20.7742C149.962 20.7558 149.738 20.9772 149.559 21.4511C149.499 21.6585 149.385 21.8454 149.229 21.9924C149.073 22.1393 148.881 22.2409 148.674 22.2864C147.579 22.5033 146.019 21.0995 145.32 20.3999C145.293 20.5609 145.233 20.7142 145.143 20.8493C145.052 20.9844 144.935 21.0983 144.798 21.1832C144.062 21.6155 142.916 21.0508 142.588 20.8709C139.968 21.4374 138.273 21.2859 137.547 20.421C137.054 23.968 135.997 30.3525 134.73 30.7063C134.597 30.7374 134.459 30.7242 134.334 30.6688C134.21 30.6133 134.106 30.5186 134.038 30.3986C133.733 29.9952 133.46 29.7942 133.29 29.8507C132.878 29.9842 132.634 31.3664 132.6 32.2585L132.56 33.2727Z" fill="#2F2E41"/>
<path d="M163.132 61.0915L169.831 59.9835C174.656 64.7036 177.943 70.817 179.248 77.4987C181.262 88.4369 181.934 90.4878 181.934 90.4878L165.818 94.5896L157.089 77.4987L163.132 61.0915Z" fill="#E6E6E6"/>
<path d="M133.409 75.3187L129.269 128.745L234.909 137.228L239.048 83.8026L133.409 75.3187Z" fill="white"/>
<path d="M144.695 79.4579C142.11 77.5783 138.828 77.4424 137.574 77.4694C137.956 78.6851 139.145 81.8028 141.73 83.6832C144.322 85.5675 147.6 85.6993 148.852 85.673C148.47 84.4578 147.281 81.3387 144.695 79.4579Z" fill="#7FC7FF"/>
<path d="M154.893 113.454L137.931 112.092C137.43 112.051 136.926 112.112 136.447 112.27C135.969 112.428 135.526 112.681 135.144 113.013C134.762 113.345 134.447 113.751 134.219 114.207C133.991 114.663 133.853 115.16 133.813 115.671C133.774 116.181 133.833 116.694 133.988 117.181C134.144 117.668 134.392 118.119 134.718 118.508C135.045 118.897 135.443 119.217 135.891 119.45C136.339 119.682 136.827 119.823 137.329 119.863L154.291 121.225C155.304 121.306 156.306 120.975 157.078 120.304C157.85 119.633 158.329 118.676 158.409 117.646C158.489 116.615 158.163 115.595 157.504 114.809C156.845 114.022 155.906 113.535 154.893 113.454Z" fill="#7FC7FF"/>
<path d="M234.884 78.6095L139.779 70.9709C138.673 70.8823 137.561 71.0163 136.505 71.3653C135.45 71.7144 134.473 72.2716 133.629 73.0053C132.785 73.7389 132.092 74.6346 131.588 75.6411C131.084 76.6477 130.78 77.7454 130.693 78.8716L127.035 126.043C126.86 128.318 127.578 130.571 129.034 132.307C130.489 134.042 132.562 135.119 134.797 135.299L229.901 142.937C231.007 143.026 232.12 142.892 233.175 142.543C234.23 142.194 235.208 141.636 236.051 140.903C236.895 140.169 237.589 139.273 238.093 138.267C238.596 137.26 238.9 136.163 238.987 135.037L242.463 90.2018L242.533 89.2858L242.644 87.8604C242.731 86.7342 242.599 85.6016 242.257 84.5272C241.914 83.4528 241.366 82.4577 240.646 81.5986C239.925 80.7396 239.045 80.0335 238.057 79.5206C237.068 79.0078 235.99 78.6982 234.884 78.6095ZM232.075 119.651L231.473 127.423C231.363 128.795 230.723 130.068 229.694 130.962C228.665 131.856 227.33 132.298 225.982 132.193L213.258 131.173C211.91 131.061 210.66 130.41 209.782 129.362C208.904 128.314 208.469 126.955 208.573 125.582L209.175 117.811C209.286 116.438 209.925 115.166 210.954 114.273C211.983 113.379 213.318 112.936 214.666 113.04L227.385 114.062C228.733 114.175 229.983 114.826 230.862 115.873C231.74 116.92 232.177 118.278 232.075 119.651ZM132.972 115.599C133.07 114.342 133.655 113.175 134.597 112.356C135.54 111.537 136.763 111.132 137.998 111.229L154.96 112.592C155.573 112.641 156.17 112.811 156.718 113.094C157.266 113.378 157.754 113.768 158.153 114.244C158.553 114.719 158.857 115.27 159.047 115.865C159.238 116.46 159.311 117.087 159.263 117.711C159.215 118.334 159.047 118.942 158.769 119.5C158.49 120.058 158.106 120.554 157.639 120.96C157.172 121.367 156.63 121.676 156.046 121.869C155.461 122.062 154.845 122.137 154.232 122.087L154.224 122.09L137.262 120.727C136.649 120.677 136.052 120.505 135.505 120.221C134.957 119.937 134.471 119.545 134.072 119.069C133.674 118.592 133.371 118.041 133.182 117.445C132.994 116.85 132.922 116.223 132.972 115.599ZM136.603 77.1615L136.487 76.6784L136.975 76.6329C137.166 76.612 141.678 76.1996 145.19 78.7538C148.702 81.3081 149.779 85.7896 149.826 85.9771L149.938 86.4613L149.451 86.5113C148.76 86.5636 148.066 86.5589 147.375 86.4973C145.18 86.3664 143.059 85.6372 141.235 84.3858C137.722 81.8315 136.645 77.35 136.603 77.1615Z" fill="#7FC7FF"/>
<path d="M217.807 124.806L212.294 124.363C211.9 124.332 211.511 124.461 211.212 124.722C210.912 124.983 210.726 125.355 210.695 125.755C210.664 126.155 210.79 126.552 211.046 126.857C211.302 127.163 211.666 127.353 212.06 127.385L217.572 127.828C217.966 127.859 218.355 127.729 218.655 127.468C218.954 127.207 219.14 126.836 219.171 126.436C219.202 126.035 219.076 125.639 218.82 125.333C218.564 125.028 218.2 124.838 217.807 124.806Z" fill="#7FC7FF"/>
<path d="M227.984 125.623L222.471 125.18C222.078 125.149 221.689 125.279 221.39 125.54C221.09 125.801 220.905 126.172 220.874 126.572C220.843 126.972 220.969 127.369 221.224 127.674C221.48 127.98 221.844 128.17 222.237 128.202L227.75 128.645C228.143 128.676 228.532 128.546 228.831 128.285C229.131 128.024 229.316 127.653 229.347 127.253C229.378 126.853 229.252 126.456 228.997 126.151C228.741 125.845 228.377 125.655 227.984 125.623Z" fill="#7FC7FF"/>
<path d="M218.108 120.92L212.595 120.477C212.202 120.447 211.813 120.576 211.513 120.837C211.214 121.098 211.028 121.469 210.997 121.869C210.966 122.269 211.092 122.666 211.348 122.971C211.603 123.277 211.968 123.467 212.361 123.499L217.873 123.942C218.267 123.973 218.656 123.844 218.956 123.583C219.255 123.322 219.441 122.95 219.472 122.55C219.503 122.15 219.377 121.753 219.121 121.448C218.865 121.142 218.501 120.952 218.108 120.92Z" fill="#7FC7FF"/>
<path d="M228.285 121.737L222.772 121.294C222.379 121.264 221.99 121.393 221.69 121.654C221.39 121.915 221.205 122.286 221.174 122.687C221.143 123.087 221.269 123.483 221.525 123.789C221.78 124.095 222.145 124.284 222.538 124.317L228.051 124.759C228.444 124.79 228.833 124.661 229.133 124.4C229.433 124.139 229.619 123.768 229.65 123.367C229.681 122.967 229.554 122.57 229.299 122.265C229.043 121.959 228.678 121.769 228.285 121.737Z" fill="#7FC7FF"/>
<path d="M218.408 117.034L212.896 116.591C212.502 116.561 212.113 116.69 211.813 116.951C211.514 117.212 211.328 117.583 211.297 117.984C211.266 118.384 211.392 118.78 211.648 119.086C211.904 119.392 212.268 119.581 212.661 119.614L218.174 120.056C218.567 120.087 218.956 119.958 219.256 119.697C219.555 119.436 219.741 119.064 219.772 118.664C219.803 118.264 219.677 117.868 219.421 117.562C219.166 117.257 218.801 117.067 218.408 117.034Z" fill="#7FC7FF"/>
<path d="M228.586 117.852L223.073 117.409C222.68 117.378 222.291 117.508 221.992 117.769C221.692 118.03 221.507 118.401 221.476 118.801C221.445 119.201 221.571 119.597 221.826 119.903C222.082 120.209 222.446 120.398 222.839 120.431L228.352 120.874C228.745 120.904 229.134 120.775 229.433 120.514C229.733 120.253 229.919 119.882 229.95 119.482C229.981 119.081 229.854 118.685 229.599 118.38C229.343 118.074 228.979 117.884 228.586 117.852Z" fill="#7FC7FF"/>
<path d="M129.279 93.7556L129.208 94.674L240.848 103.602L240.919 102.684L129.279 93.7556Z" fill="white"/>
<path d="M242.533 89.2856L242.463 90.2019L238.578 89.8916L197.182 86.5811L197.256 85.6639L238.648 88.9753L242.533 89.2856Z" fill="#3F3D56"/>
<path d="M106.055 79.5496C106.055 79.5496 100.012 105.528 107.398 105.528C114.785 105.528 132.243 76.1314 132.243 76.1314L126.2 68.6115L115.353 83.9438L114.785 76.1314L106.055 79.5496Z" fill="#A0616A"/>
<path d="M130.633 77.2608C133.88 77.2608 136.512 74.5809 136.512 71.2752C136.512 67.9694 133.88 65.2896 130.633 65.2896C127.386 65.2896 124.754 67.9694 124.754 71.2752C124.754 74.5809 127.386 77.2608 130.633 77.2608Z" fill="#A0616A"/>
<path d="M121.019 57.6733L116.991 53.5715C116.991 53.5715 108.933 58.3569 108.261 63.1424C107.59 67.9278 104.232 82.9678 104.232 82.9678L116.655 83.9932L120.684 77.8405L121.019 57.6733Z" fill="#E6E6E6"/>
</g>
<defs>
<clipPath id="clip0_81_1153">
<rect width="409" height="270" fill="white"/>
</clipPath>
</defs>
</svg>
