<svg width="409" height="270" viewBox="0 0 409 270" fill="none" xmlns="http://www.w3.org/2000/svg">
<g clip-path="url(#clip0_81_1113)">
<path d="M327.334 64.0412H325.655V23.4773C325.655 20.3942 324.967 17.3413 323.629 14.4929C322.291 11.6446 320.33 9.05643 317.857 6.87636C315.385 4.69629 312.45 2.96696 309.22 1.78711C305.99 0.607264 302.528 2.91771e-06 299.032 0H201.574C194.513 -1.37491e-05 187.742 2.47347 182.749 6.8763C177.756 11.2791 174.951 17.2507 174.951 23.4772V246.014C174.951 252.241 177.756 258.212 182.749 262.615C187.741 267.018 194.513 269.491 201.574 269.491H299.032C306.093 269.492 312.864 267.018 317.857 262.615C322.85 258.212 325.655 252.241 325.655 246.014V92.9154H327.334L327.334 64.0412Z" fill="#E6E6E6"/>
<path d="M319.988 23.6411V245.851C319.988 250.501 317.894 254.96 314.165 258.248C310.436 261.537 305.379 263.384 300.105 263.384H202.18C196.907 263.384 191.85 261.537 188.121 258.248C184.392 254.96 182.297 250.501 182.297 245.851V23.6411C182.297 18.991 184.392 14.5314 188.121 11.2432C191.85 7.9551 196.907 6.10781 202.18 6.10773H214.06C213.476 7.37264 213.254 8.74466 213.413 10.1031C213.571 11.4616 214.106 12.7648 214.97 13.8982C215.834 15.0316 217 15.9604 218.367 16.603C219.734 17.2455 221.258 17.5821 222.807 17.5831H278.639C280.188 17.5821 281.712 17.2455 283.079 16.603C284.445 15.9604 285.612 15.0316 286.476 13.8982C287.34 12.7648 287.875 11.4615 288.033 10.1031C288.192 8.74466 287.97 7.37264 287.386 6.10773H300.105C305.379 6.10781 310.436 7.9551 314.165 11.2432C317.893 14.5314 319.988 18.991 319.988 23.6411Z" fill="white"/>
<path d="M62.3242 221.569C61.5628 221.57 60.827 221.327 60.2524 220.887L55.5826 217.295C54.9543 216.81 54.5693 216.126 54.5119 215.391C54.4545 214.657 54.7293 213.932 55.2763 213.376L89.2315 179.045C89.2988 178.975 89.371 178.909 89.4477 178.847C90.017 178.375 90.7647 178.107 91.5456 178.095C92.3264 178.083 93.0846 178.327 93.6728 178.78L98.346 182.371C98.6575 182.611 98.9125 182.903 99.0962 183.229C99.28 183.556 99.3889 183.911 99.4168 184.275L99.4169 184.276C99.4452 184.64 99.3919 185.005 99.2598 185.351C99.1278 185.697 98.9197 186.016 98.6475 186.291L64.6972 220.621C64.4013 220.919 64.0365 221.158 63.6272 221.322C63.2178 221.485 62.7736 221.57 62.3242 221.569Z" fill="#7FC7FF"/>
<path d="M124.705 185.854C124.378 185.854 124.052 185.81 123.74 185.724C123.345 185.614 122.98 185.435 122.664 185.2C122.348 184.964 122.087 184.676 121.898 184.351L119.059 179.493C118.736 178.943 118.631 178.315 118.761 177.707C118.891 177.099 119.248 176.547 119.776 176.139C119.968 175.986 120.182 175.856 120.413 175.751L166.328 154.878C167.07 154.542 167.933 154.479 168.728 154.702C169.523 154.926 170.186 155.419 170.57 156.072L173.409 160.93C173.79 161.585 173.861 162.347 173.607 163.048C173.353 163.749 172.795 164.333 172.054 164.672L126.141 185.545C125.697 185.748 125.205 185.854 124.705 185.854Z" fill="#7FC7FF"/>
<path d="M123.878 187.032C123.292 187.03 122.719 186.885 122.22 186.614C121.722 186.344 121.318 185.957 121.053 185.497L118.273 180.613C117.936 180.022 117.85 179.345 118.03 178.704C118.042 178.655 118.061 178.601 118.079 178.549L118.095 178.5C118.144 178.373 118.193 178.191 118.249 177.98L118.282 177.858C118.487 177.072 118.743 176.093 119.257 175.686C119.321 175.633 119.393 175.588 119.471 175.554L139.629 164.778C140.002 164.609 140.409 164.507 140.827 164.478C141.245 164.449 141.665 164.493 142.063 164.609C142.854 164.842 143.509 165.341 143.885 165.998L148.976 175.25C149.348 175.908 149.409 176.67 149.145 177.368C148.882 178.066 148.315 178.643 147.57 178.974L125.248 186.745C124.823 186.935 124.354 187.033 123.878 187.032Z" fill="#2F2E41"/>
<path d="M108.782 161.392C121.194 161.392 131.256 152.519 131.256 141.574C131.256 130.629 121.194 121.756 108.782 121.756C96.3704 121.756 86.3086 130.629 86.3086 141.574C86.3086 152.519 96.3704 161.392 108.782 161.392Z" fill="#7FC7FF"/>
<path d="M103.142 269.822H96.9438C96.1088 269.821 95.3083 269.529 94.7179 269.008C94.1275 268.487 93.7954 267.781 93.7944 267.045V220.755C93.7954 220.018 94.1275 219.312 94.7179 218.792C95.3083 218.271 96.1088 217.978 96.9438 217.977H103.142C103.532 217.977 103.919 218.041 104.282 218.168C104.851 218.361 105.343 218.697 105.698 219.133C106.054 219.57 106.257 220.089 106.282 220.626C106.289 220.668 106.293 220.712 106.291 220.755V267.045C106.29 267.781 105.958 268.487 105.368 269.008C104.777 269.529 103.977 269.821 103.142 269.822Z" fill="#7FC7FF"/>
<path d="M137.688 241.443C137.659 241.4 137.626 241.358 137.592 241.317C137.507 241.141 137.4 240.973 137.273 240.817L126.707 227.783L118.003 217.048H103.154L104.204 218.34L106.073 220.647L111.863 227.787L124.272 243.091L112.77 263.464C112.3 264.294 113.102 265.486 114.551 266.123L120.098 268.56C120.649 268.808 121.256 268.942 121.874 268.952C122.655 268.952 123.306 268.697 123.579 268.212L137.877 242.883C137.99 242.649 138.032 242.394 137.999 242.141C137.965 241.889 137.859 241.648 137.688 241.443Z" fill="#7FC7FF"/>
<path d="M87.1558 199.13C86.3336 199.126 85.5454 198.84 84.9588 198.332L76.5492 191.22C76.0568 190.794 75.7382 190.237 75.6432 189.635C75.6201 189.51 75.6081 189.384 75.6076 189.258C75.606 189.114 75.6183 188.971 75.6442 188.83C75.7386 188.246 76.0446 187.705 76.5166 187.287L94.4002 173.654C94.8847 173.213 96.1139 173.305 97.1982 173.385L97.3618 173.397C97.5616 173.416 97.7624 173.426 97.9633 173.428C98.0375 173.434 98.1237 173.431 98.203 173.435C98.9554 173.481 99.6644 173.762 100.202 174.228L104.616 178.065C105.21 178.583 105.547 179.287 105.553 180.023C105.559 180.759 105.233 181.468 104.648 181.993L89.4338 198.281C89.139 198.551 88.7851 198.765 88.3935 198.911C88.002 199.057 87.5809 199.131 87.1558 199.13Z" fill="#2F2E41"/>
<path d="M107.89 149.66L107.867 148.919C109.429 148.881 110.807 148.794 111.842 148.128C112.135 147.928 112.376 147.675 112.549 147.385C112.721 147.096 112.821 146.777 112.842 146.451C112.86 146.251 112.826 146.051 112.742 145.865C112.658 145.679 112.526 145.513 112.357 145.379C111.67 144.867 110.565 145.033 109.759 145.359L109.064 145.64L110.397 137.052L111.229 137.153L110.095 144.458C111.19 144.174 112.205 144.296 112.9 144.813C113.166 145.019 113.376 145.276 113.511 145.564C113.647 145.853 113.705 146.165 113.681 146.477C113.656 146.915 113.523 147.344 113.291 147.732C113.059 148.121 112.733 148.46 112.337 148.726C111.007 149.583 109.279 149.625 107.89 149.66Z" fill="#2F2E41"/>
<path d="M119.867 137.783H115.344V138.523H119.867V137.783Z" fill="#2F2E41"/>
<path d="M105.59 137.783H101.066V138.523H105.59V137.783Z" fill="#2F2E41"/>
<path d="M129.181 227.972H89.2885C87.758 227.972 86.5591 225.804 86.5591 223.037V188.35C86.5603 184.1 88.0962 179.961 90.9441 176.532C93.7921 173.104 97.8042 170.564 102.399 169.281C102.338 169.038 102.307 168.789 102.306 168.54C102.307 167.607 102.728 166.713 103.476 166.053C104.224 165.394 105.238 165.023 106.295 165.022H112.174C113.232 165.023 114.246 165.394 114.994 166.053C115.741 166.713 116.162 167.607 116.163 168.54C116.163 168.79 116.131 169.039 116.07 169.283C118.29 169.899 120.388 170.815 122.289 171.999C122.68 172.24 123.066 172.497 123.435 172.762C126.699 175.07 129.174 178.131 130.584 181.604C130.815 182.169 131.021 182.754 131.194 183.342L131.194 183.342C131.67 184.979 131.911 186.661 131.91 188.35V223.037C131.91 225.735 130.753 227.887 129.269 227.962C129.24 227.969 129.21 227.972 129.181 227.972Z" fill="#2F2E41"/>
<path d="M106.925 240.562H90.9682C90.2446 240.561 89.5508 240.307 89.0391 239.856C88.5274 239.405 88.2396 238.793 88.2388 238.155V227.046C88.2396 226.408 88.5274 225.796 89.0391 225.345C89.5508 224.894 90.2446 224.64 90.9682 224.639H106.925C107.649 224.64 108.343 224.894 108.854 225.345C109.366 225.796 109.654 226.408 109.655 227.046V238.155C109.654 238.793 109.366 239.405 108.854 239.856C108.343 240.307 107.649 240.561 106.925 240.562Z" fill="#2F2E41"/>
<path d="M116.76 240.813C116.203 240.813 115.659 240.663 115.201 240.382C114.743 240.102 114.393 239.705 114.199 239.244L109.811 228.831C109.56 228.233 109.588 227.571 109.89 226.991C110.191 226.41 110.741 225.959 111.419 225.736L126.377 220.836C127.055 220.614 127.806 220.639 128.464 220.905C129.122 221.171 129.633 221.656 129.886 222.253L134.274 232.667C134.525 233.265 134.497 233.927 134.195 234.507C133.894 235.087 133.344 235.538 132.666 235.761L117.708 240.662C117.405 240.762 117.084 240.813 116.76 240.813Z" fill="#2F2E41"/>
<path d="M98.2165 132.201C102.381 130.078 107.432 131.706 111.734 132.597C116.331 133.548 121.191 133.754 125.523 131.832C129.129 130.232 131.993 127.078 132.336 123.465C132.657 120.087 130.499 116.488 126.85 115.22C123.133 113.929 118.4 115.619 117.045 118.983L118.196 118.85C113.74 113.692 108.248 108.369 100.584 107.365C97.1457 106.914 93.4759 107.324 90.5379 109.055C87.784 110.678 86.0103 113.184 84.9645 115.913C83.7512 119.079 83.4338 122.47 83.2142 125.786C83.1669 126.5 84.4268 126.497 84.4739 125.786C84.8187 120.578 85.3782 114.298 90.2062 110.66C92.7123 108.771 96.0587 108.114 99.2897 108.342C102.722 108.584 105.904 109.839 108.663 111.614C111.969 113.741 114.643 116.557 117.108 119.411C117.173 119.501 117.267 119.574 117.377 119.619C117.488 119.665 117.611 119.682 117.732 119.668C117.853 119.654 117.967 119.61 118.06 119.541C118.154 119.472 118.223 119.38 118.259 119.278C119.348 116.578 123.167 115.318 126.139 116.172C129.499 117.137 131.358 120.498 131.076 123.465C130.753 126.862 127.805 129.72 124.395 131.08C120.288 132.719 115.788 132.318 111.537 131.414C107.023 130.453 101.924 129.028 97.5807 131.241C97.4425 131.318 97.3436 131.44 97.3048 131.58C97.2661 131.72 97.2905 131.868 97.373 131.992C97.4555 132.116 97.5896 132.208 97.7469 132.247C97.9043 132.286 98.0727 132.269 98.2165 132.201Z" fill="#2F2E41"/>
<path d="M207.401 26.7171C205.636 26.7171 203.889 27.0236 202.259 27.6191C200.628 28.2145 199.147 29.0874 197.899 30.1877C196.651 31.288 195.662 32.5943 194.986 34.0319C194.311 35.4695 193.963 37.0104 193.963 38.5665C193.963 40.1225 194.311 41.6634 194.986 43.101C195.661 44.5387 196.651 45.8449 197.899 46.9452C199.147 48.0456 200.628 48.9184 202.258 49.5139C203.889 50.1094 205.636 50.4159 207.401 50.4159C210.965 50.4159 214.382 49.1675 216.902 46.9453C219.422 44.7231 220.838 41.7091 220.838 38.5665C220.838 35.4238 219.422 32.4099 216.902 30.1877C214.382 27.9655 210.965 26.7171 207.401 26.7171Z" fill="#F2F2F2"/>
<path d="M304.964 48.5645H234.417C233.526 48.5645 232.672 48.2524 232.042 47.6968C231.412 47.1413 231.058 46.3878 231.058 45.6021C231.058 44.8165 231.412 44.063 232.042 43.5074C232.672 42.9519 233.526 42.6398 234.417 42.6398H304.964C305.855 42.6398 306.709 42.9519 307.339 43.5074C307.969 44.063 308.323 44.8165 308.323 45.6021C308.323 46.3878 307.969 47.1413 307.339 47.6968C306.709 48.2524 305.855 48.5645 304.964 48.5645Z" fill="#F2F2F2"/>
<path d="M256.673 35.9745H234.417C233.526 35.9745 232.672 35.6624 232.042 35.1069C231.412 34.5513 231.058 33.7978 231.058 33.0122C231.058 32.2265 231.412 31.473 232.042 30.9175C232.672 30.3619 233.526 30.0498 234.417 30.0498H256.673C257.564 30.0498 258.419 30.3619 259.049 30.9175C259.679 31.473 260.032 32.2265 260.032 33.0122C260.032 33.7978 259.679 34.5513 259.049 35.1069C258.419 35.6624 257.564 35.9745 256.673 35.9745Z" fill="#F2F2F2"/>
<path d="M207.401 76.3364C205.636 76.3364 203.889 76.6429 202.259 77.2384C200.628 77.8339 199.147 78.7067 197.899 79.807C196.651 80.9073 195.662 82.2136 194.986 83.6512C194.311 85.0888 193.963 86.6297 193.963 88.1858C193.963 89.7419 194.311 91.2827 194.986 92.7203C195.661 94.158 196.651 95.4643 197.899 96.5646C199.147 97.6649 200.628 98.5377 202.258 99.1332C203.889 99.7287 205.636 100.035 207.401 100.035C210.965 100.035 214.382 98.7868 216.902 96.5646C219.422 94.3424 220.838 91.3285 220.838 88.1858C220.838 85.0432 219.422 82.0292 216.902 79.807C214.382 77.5848 210.965 76.3364 207.401 76.3364Z" fill="#F2F2F2"/>
<path d="M304.964 98.1838H234.417C233.526 98.1838 232.672 97.8717 232.042 97.3161C231.412 96.7606 231.058 96.0071 231.058 95.2214C231.058 94.4358 231.412 93.6823 232.042 93.1267C232.672 92.5712 233.526 92.2591 234.417 92.2591H304.964C305.855 92.2591 306.709 92.5712 307.339 93.1267C307.969 93.6823 308.323 94.4358 308.323 95.2214C308.323 96.0071 307.969 96.7606 307.339 97.3161C306.709 97.8717 305.855 98.1838 304.964 98.1838Z" fill="#F2F2F2"/>
<path d="M256.673 85.5938H234.417C233.526 85.5938 232.672 85.2817 232.042 84.7262C231.412 84.1706 231.058 83.4171 231.058 82.6315C231.058 81.8458 231.412 81.0923 232.042 80.5368C232.672 79.9812 233.526 79.6691 234.417 79.6691H256.673C257.564 79.6691 258.419 79.9812 259.049 80.5368C259.679 81.0923 260.032 81.8458 260.032 82.6315C260.032 83.4171 259.679 84.1706 259.049 84.7262C258.419 85.2817 257.564 85.5938 256.673 85.5938Z" fill="#F2F2F2"/>
<path d="M207.401 175.575C203.837 175.575 200.419 176.823 197.899 179.046C195.379 181.268 193.963 184.282 193.963 187.424C193.963 190.567 195.379 193.581 197.899 195.803C200.419 198.025 203.837 199.274 207.401 199.274C210.965 199.274 214.382 198.025 216.902 195.803C219.422 193.581 220.838 190.567 220.838 187.424C220.838 184.282 219.422 181.268 216.902 179.046C214.382 176.823 210.965 175.575 207.401 175.575Z" fill="#F2F2F2"/>
<path d="M304.964 197.422H234.417C233.526 197.422 232.672 197.11 232.042 196.555C231.412 195.999 231.058 195.246 231.058 194.46C231.058 193.674 231.412 192.921 232.042 192.365C232.672 191.81 233.526 191.498 234.417 191.498H304.964C305.855 191.498 306.709 191.81 307.339 192.365C307.969 192.921 308.323 193.674 308.323 194.46C308.323 195.246 307.969 195.999 307.339 196.555C306.709 197.11 305.855 197.422 304.964 197.422Z" fill="#F2F2F2"/>
<path d="M256.673 184.833H234.417C233.526 184.833 232.672 184.52 232.042 183.965C231.412 183.409 231.058 182.656 231.058 181.87C231.058 181.085 231.412 180.331 232.042 179.775C232.672 179.22 233.526 178.908 234.417 178.908H256.673C257.564 178.908 258.419 179.22 259.049 179.775C259.679 180.331 260.032 181.085 260.032 181.87C260.032 182.656 259.679 183.409 259.049 183.965C258.419 184.52 257.564 184.833 256.673 184.833Z" fill="#F2F2F2"/>
<path d="M207.401 225.194C205.636 225.194 203.889 225.501 202.259 226.096C200.628 226.692 199.147 227.565 197.899 228.665C196.651 229.765 195.662 231.072 194.986 232.509C194.311 233.947 193.963 235.488 193.963 237.044C193.963 238.6 194.311 240.141 194.986 241.578C195.661 243.016 196.651 244.322 197.899 245.423C199.147 246.523 200.628 247.396 202.258 247.991C203.889 248.587 205.636 248.893 207.401 248.893C210.965 248.893 214.382 247.645 216.902 245.423C219.422 243.2 220.838 240.187 220.838 237.044C220.838 233.901 219.422 230.887 216.902 228.665C214.382 226.443 210.965 225.194 207.401 225.194Z" fill="#F2F2F2"/>
<path d="M304.964 247.042H234.417C233.526 247.042 232.672 246.73 232.042 246.174C231.412 245.619 231.058 244.865 231.058 244.08C231.058 243.294 231.412 242.54 232.042 241.985C232.672 241.429 233.526 241.117 234.417 241.117H304.964C305.855 241.117 306.709 241.429 307.339 241.985C307.969 242.54 308.323 243.294 308.323 244.08C308.323 244.865 307.969 245.619 307.339 246.174C306.709 246.73 305.855 247.042 304.964 247.042Z" fill="#F2F2F2"/>
<path d="M256.673 234.452H234.417C233.526 234.452 232.672 234.14 232.042 233.584C231.412 233.029 231.058 232.275 231.058 231.489C231.058 230.704 231.412 229.95 232.042 229.395C232.672 228.839 233.526 228.527 234.417 228.527H256.673C257.564 228.527 258.419 228.839 259.049 229.395C259.679 229.95 260.032 230.704 260.032 231.489C260.032 232.275 259.679 233.029 259.049 233.584C258.419 234.14 257.564 234.452 256.673 234.452Z" fill="#F2F2F2"/>
<path d="M332.187 166.318H170.099C168.262 166.316 166.501 165.672 165.202 164.526C163.903 163.381 163.172 161.828 163.17 160.208V114.292C163.172 112.672 163.903 111.119 165.202 109.973C166.501 108.828 168.262 108.184 170.099 108.182H332.187C334.024 108.184 335.785 108.828 337.084 109.973C338.383 111.119 339.114 112.672 339.116 114.292V160.208C339.114 161.828 338.383 163.381 337.084 164.526C335.785 165.672 334.024 166.316 332.187 166.318Z" fill="white"/>
<path d="M207.401 125.4C203.837 125.4 200.419 126.649 197.899 128.871C195.379 131.093 193.963 134.107 193.963 137.25C193.963 140.392 195.379 143.406 197.899 145.629C200.419 147.851 203.837 149.099 207.401 149.099C210.965 149.099 214.382 147.851 216.902 145.629C219.422 143.406 220.838 140.392 220.838 137.25C220.838 134.107 219.422 131.093 216.902 128.871C214.382 126.649 210.965 125.4 207.401 125.4Z" fill="#7FC7FF"/>
<path d="M304.964 147.248H234.417C233.526 147.248 232.672 146.936 232.042 146.38C231.412 145.825 231.058 145.071 231.058 144.285C231.058 143.5 231.412 142.746 232.042 142.191C232.672 141.635 233.526 141.323 234.417 141.323H304.964C305.855 141.323 306.709 141.635 307.339 142.191C307.969 142.746 308.323 143.5 308.323 144.285C308.323 145.071 307.969 145.825 307.339 146.38C306.709 146.936 305.855 147.248 304.964 147.248Z" fill="#CCCCCC"/>
<path d="M256.673 134.658H234.417C233.526 134.658 232.672 134.346 232.042 133.79C231.412 133.235 231.058 132.481 231.058 131.695C231.058 130.91 231.412 130.156 232.042 129.601C232.672 129.045 233.526 128.733 234.417 128.733H256.673C257.564 128.733 258.419 129.045 259.049 129.601C259.679 130.156 260.032 130.91 260.032 131.695C260.032 132.481 259.679 133.235 259.049 133.79C258.419 134.346 257.564 134.658 256.673 134.658Z" fill="#CCCCCC"/>
<path d="M332.187 166.318H170.099C168.262 166.316 166.501 165.672 165.202 164.526C163.903 163.381 163.172 161.828 163.17 160.208V114.292C163.172 112.672 163.903 111.119 165.202 109.973C166.501 108.828 168.262 108.184 170.099 108.182H332.187C334.024 108.184 335.785 108.828 337.084 109.973C338.383 111.119 339.114 112.672 339.116 114.292V160.208C339.114 161.828 338.383 163.381 337.084 164.526C335.785 165.672 334.024 166.316 332.187 166.318ZM170.099 108.552C168.373 108.554 166.719 109.159 165.499 110.235C164.279 111.311 163.592 112.77 163.59 114.292V160.208C163.592 161.73 164.279 163.189 165.499 164.265C166.719 165.341 168.373 165.946 170.099 165.948H332.187C333.913 165.946 335.567 165.341 336.788 164.265C338.008 163.189 338.694 161.73 338.696 160.208V114.292C338.694 112.77 338.008 111.311 336.788 110.235C335.567 109.159 333.913 108.554 332.187 108.552H170.099Z" fill="#3F3D56"/>
<path d="M206.126 142.171C205.772 142.171 205.428 142.071 205.145 141.883L205.127 141.872L201.432 139.379C201.087 139.145 200.861 138.8 200.804 138.42C200.747 138.039 200.864 137.654 201.129 137.35C201.394 137.045 201.785 136.846 202.216 136.795C202.648 136.745 203.084 136.847 203.43 137.081L205.824 138.699L211.48 132.192C211.611 132.041 211.774 131.915 211.961 131.82C212.148 131.725 212.354 131.663 212.567 131.638C212.781 131.613 212.998 131.626 213.207 131.675C213.415 131.724 213.61 131.809 213.781 131.924L213.782 131.925L213.746 131.968L213.782 131.925C214.128 132.158 214.353 132.504 214.41 132.884C214.467 133.265 214.351 133.65 214.086 133.954L207.433 141.604C207.279 141.781 207.082 141.923 206.855 142.021C206.629 142.119 206.38 142.17 206.127 142.169L206.126 142.171Z" fill="white"/>
<path d="M408.58 270H0.419918C0.308549 270 0.201741 269.961 0.122991 269.892C0.0442409 269.822 0 269.728 0 269.63C0 269.531 0.0442409 269.437 0.122991 269.368C0.201741 269.298 0.308549 269.259 0.419918 269.259H408.58C408.691 269.259 408.798 269.298 408.877 269.368C408.956 269.437 409 269.531 409 269.63C409 269.728 408.956 269.822 408.877 269.892C408.798 269.961 408.691 270 408.58 270Z" fill="#CCCCCC"/>
</g>
<defs>
<clipPath id="clip0_81_1113">
<rect width="409" height="270" fill="white"/>
</clipPath>
</defs>
</svg>
