<svg width="409" height="270" viewBox="0 0 409 270" fill="none" xmlns="http://www.w3.org/2000/svg">
<g clip-path="url(#clip0_81_1021)">
<path d="M132.767 52.9287C156.051 52.9287 174.927 41.0802 174.927 26.4644C174.927 11.8485 156.051 0 132.767 0C109.483 0 90.6079 11.8485 90.6079 26.4644C90.6079 41.0802 109.483 52.9287 132.767 52.9287Z" fill="#F2F2F2"/>
<path d="M42.6339 121.827C65.9178 121.827 84.7932 109.979 84.7932 95.3629C84.7932 80.7471 65.9178 68.8986 42.6339 68.8986C19.35 68.8986 0.474609 80.7471 0.474609 95.3629C0.474609 109.979 19.35 121.827 42.6339 121.827Z" fill="#F2F2F2"/>
<path d="M132.041 195.289C155.325 195.289 174.2 183.44 174.2 168.824C174.2 154.208 155.325 142.36 132.041 142.36C108.757 142.36 89.8813 154.208 89.8813 168.824C89.8813 183.44 108.757 195.289 132.041 195.289Z" fill="#F2F2F2"/>
<path d="M301.99 257.68C302.528 257.695 303.06 257.607 303.515 257.426C303.97 257.245 304.326 256.981 304.533 256.669C304.741 256.357 304.791 256.013 304.677 255.682C304.562 255.352 304.289 255.052 303.893 254.822C303.827 254.657 303.78 254.538 303.713 254.373C303.737 254.337 303.761 254.301 303.785 254.265C304.327 253.462 305.235 252.777 306.395 252.296C307.555 251.815 308.916 251.561 310.306 251.564C311.696 251.567 313.054 251.828 314.208 252.314C315.363 252.8 316.263 253.49 316.795 254.296C318.923 257.513 321.632 260.735 322.299 264.137C322.593 265.64 322.469 267.164 321.933 268.641C326.931 261.798 329.526 254.36 329.542 246.831C329.543 244.942 329.376 243.055 329.042 241.177C328.765 239.638 328.381 238.11 327.89 236.593C325.212 228.361 319.46 220.645 311.109 214.079C307.067 212.695 303.798 210.566 301.743 207.979C300.998 207.049 300.472 206.057 300.18 205.032C300.636 205.07 301.1 205.093 301.556 205.112C301.698 205.117 301.847 205.121 301.989 205.126L302.043 205.128C302.544 205.142 303.041 205.065 303.474 204.906C303.907 204.747 304.257 204.512 304.483 204.231C304.709 203.95 304.8 203.634 304.747 203.321C304.693 203.008 304.496 202.711 304.18 202.466C303.983 202.314 303.786 202.162 303.589 202.01C303.29 201.776 302.983 201.546 302.684 201.311C302.65 201.289 302.617 201.266 302.587 201.241C302.243 200.973 301.9 200.711 301.556 200.443C302.183 199.832 303.027 199.319 304.022 198.946C307.468 197.679 312.223 198.557 314.712 200.514C317.209 202.47 317.679 205.215 316.812 207.66C315.96 209.74 314.549 211.714 312.641 213.497C312.828 213.647 313.022 213.793 313.209 213.943C316.626 216.7 319.603 219.661 322.099 222.783C321.492 219.286 322.216 215.748 324.213 212.46C326.236 209.396 330.028 206.816 333.368 204.167C337.379 200.986 345.605 202.374 346.312 206.407C346.318 206.446 346.325 206.485 346.332 206.524C345.836 206.7 345.35 206.887 344.875 207.084C344.278 207.334 343.816 207.692 343.548 208.11C343.281 208.528 343.221 208.987 343.376 209.427C343.531 209.867 343.894 210.267 344.418 210.575C344.942 210.883 345.602 211.085 346.311 211.153L346.384 211.16C346.207 212.283 345.895 213.395 345.449 214.487C344.159 217.537 341.879 220.387 338.752 222.858C335.625 225.328 331.719 227.367 327.278 228.846C326.986 228.94 326.702 229.033 326.41 229.123C328.918 233.584 330.491 238.23 331.09 242.946C331.429 245.728 331.409 248.523 331.03 251.303L331.052 251.205C332.009 248.113 334.636 245.324 338.49 243.307C344.214 240.356 352.301 239.269 358.475 236.897C359.132 236.632 359.895 236.491 360.675 236.49C361.454 236.489 362.219 236.627 362.877 236.89C363.535 237.152 364.06 237.528 364.39 237.971C364.72 238.415 364.841 238.908 364.738 239.394C364.73 239.428 364.721 239.463 364.713 239.497C363.792 239.733 362.896 240.004 362.029 240.309C361.533 240.485 361.048 240.671 360.573 240.868C359.976 241.119 359.513 241.476 359.246 241.894C358.978 242.312 358.918 242.772 359.074 243.211C359.229 243.651 359.592 244.052 360.116 244.36C360.64 244.668 361.3 244.869 362.009 244.938L362.082 244.945C362.134 244.95 362.179 244.954 362.231 244.959C360.658 247.316 358.451 249.486 355.705 251.373C352.314 253.658 348.215 255.483 343.659 256.738C339.104 257.993 334.188 258.65 329.214 258.67H329.206C327.856 262.353 325.899 265.939 323.368 269.368H302.512C302.438 269.223 302.37 269.073 302.303 268.927C304.234 269.003 306.172 268.931 308.074 268.711C306.527 267.52 304.979 266.318 303.432 265.127C303.397 265.104 303.365 265.081 303.335 265.056C302.55 264.446 301.757 263.841 300.973 263.231L300.972 263.23C300.93 261.36 301.273 259.495 301.99 257.68Z" fill="#F2F2F2"/>
<path d="M138.805 102.544C139.105 103.175 139.621 103.756 140.318 104.247C141.014 104.739 141.874 105.128 142.837 105.388C143.799 105.649 144.841 105.773 145.888 105.753C146.935 105.733 147.963 105.57 148.899 105.274L167.417 115.882L169.875 107.718L151.902 98.9218C151.005 97.9681 149.582 97.254 147.903 96.9148C146.224 96.5756 144.404 96.6349 142.79 97.0814C141.176 97.528 139.878 98.3307 139.144 99.3376C138.409 100.344 138.288 101.485 138.805 102.544Z" fill="#FFB6B6"/>
<path d="M203.257 94.4358C203.257 94.4358 209.714 85.2759 217.87 87.0966C225.36 88.7689 226.356 88.2193 221.814 97.8049L191.174 126.787C191.174 126.787 158.948 113.93 164.322 113.805C169.696 113.679 169.55 107.241 169.55 107.241L182.693 109.93L183.483 107.322L184.75 108.117L188.019 106.502L203.257 94.4358Z" fill="#7FC7FF"/>
<path d="M240.04 116.099L238.678 124.03L239.479 134.43L204.729 131.865L202.242 116.099L206.635 116.126L240.04 116.099Z" fill="#FFB6B6"/>
<path d="M246.717 260.09H238.694L230.897 222.209H249.069L246.717 260.09Z" fill="#FFB6B6"/>
<path d="M249.069 229.519V237.723C249.069 237.723 237.512 244.216 229.443 238.179L224.413 211.432C224.413 211.432 224.29 208.927 221.796 207.439C221.583 207.312 221.398 207.168 221.244 207.011C219.441 205.263 220.175 201.649 220.175 201.649C220.175 201.649 216.672 200.463 215.567 196.63C214.462 192.797 210.828 184.425 210.828 184.425C210.828 184.425 203.319 172.064 203.842 164.239C203.937 162.792 203.973 161.474 203.973 160.287C203.951 155.049 203.115 152.343 203.115 152.343L201.596 134.165L204.729 131.409L219.056 131.674L220.03 131.656L220.386 131.651L235.098 131.373L243.407 134.439C243.407 134.439 244.148 135.598 245.195 137.199C247.15 140.17 250.159 144.664 251.49 146.174C253.539 148.502 252.522 160.474 245.544 165.795C245.544 165.795 242.643 168.382 243.407 169.317C244.097 170.166 243.436 171.603 243.305 171.859V171.863C243.29 171.886 243.283 171.9 243.283 171.9L242.171 187.413C242.171 187.413 242.171 194.061 244.664 196.489C247.157 198.916 249.069 229.519 249.069 229.519Z" fill="#2F2E41"/>
<path d="M250.952 268.816H245.198L244.171 265.406L241.541 268.816H226.281C225.549 268.816 224.837 268.669 224.248 268.397C223.658 268.125 223.223 267.742 223.006 267.303C222.788 266.865 222.799 266.394 223.038 265.96C223.276 265.526 223.729 265.151 224.331 264.89L236.518 259.607V256.16L249.336 256.64L250.952 268.816Z" fill="#2F2E41"/>
<path d="M199.281 260.189L191.384 259.3L194.357 221.151L212.245 223.163L199.281 260.189Z" fill="#FFB6B6"/>
<path d="M245.543 165.795C245.543 165.795 242.643 168.382 243.406 169.317C244.097 170.166 243.436 171.603 243.305 171.859V171.863C242.504 172.26 241.655 172.619 240.768 172.935C240.768 172.935 236.566 174.688 236.741 175.732C236.908 176.777 235.127 178.11 235.127 178.11L225.118 192.309C225.118 192.309 221.266 198.505 222.189 201.334C222.472 202.201 222.014 204.387 221.244 207.011C219.521 212.951 213.284 233.89 213.284 233.89L208.363 241.373C208.363 241.373 189.951 238.165 189.464 237.267C189.464 237.267 196.006 208.274 194.545 206.322C193.084 204.369 193.804 198.651 194.996 194.832C196.181 191.009 197.802 169.148 202.817 161.98C203.224 161.396 203.609 160.83 203.973 160.287C208.022 154.169 209.025 150.728 209.025 150.728L218.125 133.449L219.056 131.674L219.267 132.322L220.386 131.651L236.755 135.31L245.195 137.199C247.15 140.17 250.159 144.664 251.489 146.174C253.539 148.501 252.522 160.474 245.543 165.795Z" fill="#2F2E41"/>
<path d="M200.495 256.728L191.683 255.394L190.345 255.192L189.379 258.585L175.896 262.437C175.23 262.627 174.678 262.945 174.32 263.346C173.963 263.746 173.82 264.209 173.911 264.664C174.003 265.12 174.324 265.545 174.829 265.878C175.333 266.21 175.994 266.433 176.715 266.512L191.729 268.205L195.279 265.139L195.331 268.611L200.997 269.245L202.828 257.082L200.495 256.728Z" fill="#2F2E41"/>
<path d="M408.135 270H0.865905C0.636798 270 0.417316 269.942 0.255547 269.84C0.0937774 269.738 0.00292969 269.601 0.00292969 269.457C0.00292969 269.313 0.0937774 269.175 0.255547 269.073C0.417316 268.971 0.636798 268.914 0.865905 268.913H408.135C408.364 268.914 408.584 268.971 408.745 269.073C408.907 269.175 408.998 269.313 408.998 269.457C408.998 269.601 408.907 269.738 408.745 269.84C408.584 269.942 408.364 270 408.135 270Z" fill="#CCCCCC"/>
<path d="M224.528 80.8579C233.379 80.8579 240.555 76.3539 240.555 70.7979C240.555 65.2418 233.379 60.7378 224.528 60.7378C215.677 60.7378 208.502 65.2418 208.502 70.7979C208.502 76.3539 215.677 80.8579 224.528 80.8579Z" fill="#FFB7B7"/>
<path d="M208.088 90.034L216.807 86.7497L220.72 82.587H230.897L234.247 85.655L249.662 90.5822L249.507 105.634L242.527 128.215L202.548 120.915L200.095 112.454C200.095 112.454 185.852 102.897 198.06 97.4234L208.088 90.034Z" fill="#7FC7FF"/>
<path d="M245.414 155.022C246.243 154.702 246.949 154.272 247.484 153.761C248.019 153.251 248.369 152.673 248.51 152.069C248.651 151.464 248.579 150.848 248.299 150.263C248.019 149.678 247.538 149.138 246.89 148.683L252.513 110.79L238.081 111.49L237.092 148.517C235.944 149.251 235.265 150.224 235.184 151.251C235.102 152.278 235.624 153.288 236.65 154.09C237.676 154.892 239.134 155.43 240.75 155.602C242.365 155.773 244.025 155.567 245.414 155.022Z" fill="#FFB6B6"/>
<path d="M249.796 90.3439C249.796 90.3439 249.796 90.8002 252.204 95.0835C254.267 98.7529 257.917 121.295 250.794 126.797C252.78 127.565 249.794 141.81 249.069 143.273L234.531 140.991C232.57 138.875 234.658 124.024 236.083 123.672L236 116.91L232.279 94.6202L246.606 90.9362L249.796 90.3439Z" fill="#7FC7FF"/>
<path d="M147.025 108.277L143.358 93.5255C143.234 93.0208 143.433 92.5056 143.913 92.093C144.393 91.6805 145.114 91.4043 145.918 91.325L151.039 90.8233C151.844 90.7451 152.664 90.8704 153.321 91.1716C153.979 91.4728 154.419 91.9253 154.545 92.4299L158.212 107.181C158.336 107.686 158.137 108.201 157.657 108.614C157.177 109.026 156.456 109.302 155.652 109.382L150.531 109.883C149.727 109.961 148.906 109.836 148.249 109.535C147.591 109.234 147.151 108.781 147.025 108.277Z" fill="#3F3D56"/>
<path d="M146.704 92.0186C146.271 92.0614 145.882 92.2102 145.624 92.4326C145.365 92.6549 145.258 92.9325 145.325 93.2045L148.991 107.956C149.059 108.228 149.297 108.471 149.651 108.634C150.005 108.796 150.447 108.864 150.88 108.821L156.002 108.32C156.435 108.277 156.824 108.128 157.082 107.906C157.341 107.684 157.448 107.406 157.381 107.134L153.715 92.3828C153.647 92.1108 153.409 91.867 153.055 91.7047C152.701 91.5424 152.259 91.4749 151.825 91.517L146.704 92.0186Z" fill="#7FC7FF"/>
<path d="M248.342 75.4192V76.5469C248.342 77.2746 248.11 77.995 247.66 78.6657C247.21 79.3363 246.55 79.9435 245.72 80.4516C244.89 80.9597 243.906 81.3583 242.827 81.6239C241.748 81.8895 240.595 82.0169 239.436 81.9983L227.632 81.7632C227.494 81.0296 227.108 80.3229 226.501 79.6901C226.582 80.3858 226.426 81.0845 226.042 81.7392L220.821 81.6576C224.96 75.9308 226.575 71.0627 220.821 68.7008H213.084C212.929 68.0048 212.552 67.3356 211.975 66.7332C212.057 67.4 211.916 68.07 211.563 68.7008H204.002C204.003 66.2828 205.533 63.964 208.257 62.2542C210.981 60.5444 214.675 59.5836 218.527 59.583H220.821C238.113 56.8525 247.241 62.6879 248.342 75.4192Z" fill="#2F2E41"/>
<path d="M72.3895 106.515C70.5769 106.515 68.8049 106.178 67.2978 105.546C65.7906 104.914 64.6159 104.015 63.9223 102.964C63.2286 101.913 63.0471 100.756 63.4007 99.6401C63.7543 98.5241 64.6272 97.499 65.909 96.6944C67.1907 95.8899 68.8237 95.3419 70.6015 95.1199C72.3794 94.898 74.2221 95.0119 75.8968 95.4473C77.5715 95.8828 79.0028 96.6201 80.0099 97.5662C81.0169 98.5123 81.5545 99.6246 81.5545 100.762C81.5517 102.288 80.5852 103.75 78.8671 104.829C77.1489 105.907 74.8194 106.514 72.3895 106.515ZM72.3895 96.0554C70.9065 96.0554 69.4567 96.3315 68.2236 96.8487C66.9904 97.3659 66.0293 98.101 65.4618 98.9611C64.8942 99.8212 64.7457 100.768 65.0351 101.681C65.3244 102.594 66.0386 103.432 67.0873 104.091C68.136 104.749 69.4721 105.197 70.9266 105.379C72.3812 105.561 73.8889 105.467 75.2591 105.111C76.6293 104.755 77.8004 104.152 78.6243 103.377C79.4483 102.603 79.8881 101.693 79.8881 100.762C79.8858 99.5145 79.095 98.3181 77.6892 97.4357C76.2835 96.5532 74.3776 96.0569 72.3895 96.0554Z" fill="#2F2E41"/>
<path d="M72.3898 108.869C69.8356 108.869 67.3388 108.394 65.2151 107.503C63.0913 106.612 61.4361 105.346 60.4586 103.865C59.4812 102.383 59.2254 100.753 59.7237 99.1809C60.222 97.6084 61.452 96.164 63.2581 95.0302C65.0642 93.8965 67.3652 93.1244 69.8703 92.8117C72.3755 92.4989 74.9721 92.6594 77.3319 93.273C79.6916 93.8865 81.7085 94.9256 83.1276 96.2587C84.5466 97.5918 85.304 99.1591 85.304 100.762C85.3002 102.912 83.9383 104.972 81.5173 106.492C79.0962 108.012 75.8137 108.867 72.3898 108.869ZM72.3898 93.7019C70.1652 93.7019 67.9905 94.116 66.1408 94.8918C64.2911 95.6676 62.8495 96.7703 61.9981 98.0605C61.1468 99.3506 60.924 100.77 61.358 102.14C61.792 103.509 62.8633 104.768 64.4363 105.755C66.0094 106.742 68.0136 107.415 70.1954 107.687C72.3773 107.96 74.6389 107.82 76.6941 107.286C78.7494 106.751 80.5061 105.846 81.742 104.685C82.978 103.524 83.6376 102.159 83.6376 100.762C83.6342 98.8905 82.4481 97.0959 80.3395 95.7722C78.2308 94.4486 75.3719 93.704 72.3898 93.7019Z" fill="#2F2E41"/>
<path d="M72.3897 117.76C67.0342 117.76 61.7989 116.763 57.3459 114.895C52.8929 113.028 49.4222 110.373 47.3728 107.267C45.3233 104.161 44.787 100.744 45.8318 97.4464C46.8766 94.1492 49.4556 91.1205 53.2426 88.7433C57.0295 86.3662 61.8544 84.7473 67.107 84.0914C72.3597 83.4356 77.8042 83.7722 82.7521 85.0587C87.7 86.3452 91.929 88.5238 94.9044 91.3191C97.8798 94.1143 99.4679 97.4006 99.4679 100.762C99.4597 105.269 96.6042 109.589 91.5279 112.776C86.4515 115.962 79.5688 117.755 72.3897 117.76ZM72.3897 84.8108C67.3638 84.8108 62.4506 85.7464 58.2717 87.4992C54.0927 89.252 50.8356 91.7433 48.9123 94.658C46.9889 97.5728 46.4857 100.78 47.4662 103.874C48.4467 106.969 50.867 109.811 54.4209 112.042C57.9748 114.273 62.5027 115.792 67.4321 116.408C72.3615 117.023 77.471 116.707 82.1144 115.5C86.7578 114.292 90.7266 112.248 93.5189 109.625C96.3112 107.001 97.8015 103.917 97.8015 100.762C97.794 96.5333 95.1142 92.4787 90.3502 89.4882C85.5862 86.4978 79.127 84.8156 72.3897 84.8108Z" fill="#2F2E41"/>
<path d="M50.8573 91.7454L49.4326 92.2878L60.2313 103.464L61.656 102.922L50.8573 91.7454Z" fill="#2F2E41"/>
<path d="M79.4601 106.3L69.9043 116.981L71.3575 117.493L80.9132 106.812L79.4601 106.3Z" fill="#2F2E41"/>
<path d="M95.6829 92.6546L75.0103 92.8384L75.0338 93.8844L95.7065 93.7006L95.6829 92.6546Z" fill="#2F2E41"/>
<path d="M104.443 160.984L103.548 160.102C105.779 159.211 108.364 158.731 111.009 158.716L111.025 159.762C108.692 159.775 106.411 160.198 104.443 160.984Z" fill="#2F2E41"/>
<path d="M112.234 184.337C106.702 184.37 101.291 183.323 96.7501 181.339C92.2092 179.356 88.7636 176.535 86.8908 173.267C85.018 170 84.8107 166.447 86.2976 163.103C87.7846 159.758 90.8921 156.786 95.1897 154.599L96.2395 155.412C92.4055 157.363 89.5774 159.982 88.1115 162.941C86.6457 165.899 86.6078 169.063 88.0027 172.035C89.3976 175.007 92.1627 177.653 95.9496 179.639C99.7365 181.626 104.376 182.865 109.282 183.199C114.189 183.533 119.143 182.948 123.521 181.517C127.898 180.087 131.503 177.875 133.881 175.16C136.259 172.445 137.303 169.349 136.882 166.262C136.461 163.176 134.594 160.236 131.516 157.815L132.817 157.162C136.551 160.077 138.602 163.7 138.638 167.441C138.698 171.878 135.952 176.149 131.002 179.316C126.052 182.484 119.302 184.289 112.234 184.337Z" fill="#2F2E41"/>
<path d="M101.297 168.9L99.6985 168.604C100.004 167.924 100.589 167.306 101.395 166.812C102.202 166.319 103.201 165.968 104.293 165.794L104.427 165.784L109.421 165.663L111.335 164.198L109.863 163.9L102.705 160.597L102.652 157.129L95.2021 160.312L95.1216 155.046L96.7879 155.036L96.8385 158.347L104.289 155.164L104.364 160.064L110.632 162.956L114.175 163.674L110.234 166.69L104.571 166.827C103.788 166.968 103.076 167.232 102.503 167.595C101.93 167.958 101.514 168.407 101.297 168.9Z" fill="#2F2E41"/>
<path d="M135.32 164.185L119.678 150.356C111.795 151.62 111.5 159.172 111.498 159.25L109.833 159.233C109.842 158.873 110.178 150.425 119.88 149.257L120.406 149.193L131.783 159.252L131.001 157.14L132.624 156.903L135.32 164.185Z" fill="#2F2E41"/>
<path d="M111.681 175.449C108.666 175.457 105.754 174.761 103.51 173.496C101.267 172.231 99.8523 170.489 99.5415 168.606L101.2 168.505C101.462 170.181 102.745 171.728 104.78 172.826C106.815 173.923 109.446 174.484 112.125 174.394C114.803 174.303 117.323 173.568 119.159 172.34C120.995 171.112 122.005 169.487 121.98 167.803C121.969 166.678 121.494 165.574 120.599 164.599C119.705 163.624 118.422 162.812 116.877 162.241L113.212 160.874L120.419 161.559C117.783 160.228 114.434 159.585 111.064 159.761L110.969 158.717C119.326 158.415 123.25 161.862 123.413 162.008L124.517 163.005L120.274 162.603C121.909 163.671 123.011 165.016 123.442 166.472C123.874 167.929 123.617 169.433 122.704 170.799C121.79 172.164 120.26 173.333 118.301 174.159C116.342 174.985 114.041 175.434 111.681 175.449Z" fill="#2F2E41"/>
<path d="M133.478 23.0334C133.345 22.9498 133.22 22.8713 133.086 22.7877C128.068 19.7075 121.316 17.9945 114.297 18.0206C107.278 18.0467 100.559 19.8097 95.5988 22.9269C90.6385 26.0441 87.8373 30.2637 87.8035 34.6696C87.7698 39.0754 90.5061 43.3118 95.4185 46.4588C95.5352 46.5372 95.6601 46.6157 95.7851 46.6941C100.798 49.7881 107.555 51.5136 114.585 51.495C121.615 51.4764 128.349 49.7151 133.32 46.5947C138.291 43.4743 141.096 39.2474 141.126 34.8345C141.156 30.4216 138.407 26.1801 133.478 23.0334ZM114.465 50.4493C108.033 50.453 101.85 48.8936 97.2098 46.0979C96.9265 45.9305 96.6515 45.7579 96.3933 45.5801C91.8835 42.6194 89.3989 38.6683 89.4712 34.5722C89.5436 30.4761 92.1671 26.5605 96.7803 23.6633C101.394 20.7661 107.63 19.1174 114.155 19.0701C120.681 19.0227 126.976 20.5805 131.695 23.41C131.978 23.5774 132.253 23.75 132.52 23.9278C135.906 26.1468 138.18 28.9418 139.056 31.9652C139.933 34.9886 139.375 38.1071 137.451 40.9329C135.527 43.7588 132.323 46.1674 128.236 47.8594C124.149 49.5513 119.36 50.4519 114.465 50.4493Z" fill="#2F2E41"/>
<path d="M133.086 22.7877L131.695 23.41L111.315 32.4737L110.532 32.8188L96.3933 45.5801L95.4185 46.4588C95.5351 46.5372 95.6601 46.6157 95.785 46.6941L97.2098 46.0979L117.589 37.5677L118.397 37.2277L132.52 23.9278L133.478 23.0334C133.345 22.9498 133.22 22.8713 133.086 22.7877ZM117.631 36.0667L117.198 36.4746L116.431 36.7937L100.992 43.2527L111.282 33.9694L111.732 33.5615L112.474 33.232L127.937 26.3598L117.631 36.0667Z" fill="#2F2E41"/>
<path d="M111.68 32.7954L110.583 33.5826L117.248 37.2436L118.345 36.4564L111.68 32.7954Z" fill="#2F2E41"/>
<path d="M114.882 19.8536H113.215V22.3039H114.882V19.8536Z" fill="#2F2E41"/>
<path d="M114.882 46.5268H113.215V48.9771H114.882V46.5268Z" fill="#2F2E41"/>
<path d="M114.882 19.8536H113.215V22.3039H114.882V19.8536Z" fill="black"/>
<path d="M114.882 46.5268H113.215V48.9771H114.882V46.5268Z" fill="black"/>
<path d="M121.889 20.7008L120.44 22.9762L121.988 23.3644L123.436 21.089L121.889 20.7008Z" fill="#2F2E41"/>
<path d="M106.109 45.4663L104.66 47.7417L106.208 48.1299L107.656 45.8545L106.109 45.4663Z" fill="#2F2E41"/>
<path d="M121.889 20.7008L120.44 22.9762L121.988 23.3644L123.436 21.089L121.889 20.7008Z" fill="black"/>
<path d="M106.109 45.4663L104.66 47.7417L106.208 48.1299L107.656 45.8545L106.109 45.4663Z" fill="black"/>
<path d="M127.105 22.3677L124.795 24.3429L126.138 24.9619L128.448 22.9867L127.105 22.3677Z" fill="#2F2E41"/>
<path d="M101.958 43.8688L99.6484 45.844L100.992 46.463L103.302 44.4878L101.958 43.8688Z" fill="#2F2E41"/>
<path d="M127.105 22.3677L124.795 24.3429L126.138 24.9619L128.448 22.9867L127.105 22.3677Z" fill="black"/>
<path d="M101.958 43.8688L99.6484 45.844L100.992 46.463L103.302 44.4878L101.958 43.8688Z" fill="black"/>
<path d="M132.887 25.9014L129.639 27.2606L130.563 28.1309L133.811 26.7717L132.887 25.9014Z" fill="#2F2E41"/>
<path d="M97.534 40.6998L94.2861 42.059L95.2104 42.9293L98.4583 41.5701L97.534 40.6998Z" fill="#2F2E41"/>
<path d="M132.887 25.9014L129.639 27.2606L130.563 28.1309L133.811 26.7717L132.887 25.9014Z" fill="black"/>
<path d="M97.534 40.6998L94.2861 42.059L95.2104 42.9293L98.4583 41.5701L97.534 40.6998Z" fill="black"/>
<path d="M135.848 29.4089L132.136 30.1676L132.652 31.162L136.364 30.4033L135.848 29.4089Z" fill="#2F2E41"/>
<path d="M95.4458 37.6683L91.7339 38.427L92.2497 39.4214L95.9616 38.6627L95.4458 37.6683Z" fill="#2F2E41"/>
<path d="M135.848 29.4089L132.136 30.1676L132.652 31.162L136.364 30.4033L135.848 29.4089Z" fill="black"/>
<path d="M95.4458 37.6683L91.7339 38.427L92.2497 39.4214L95.9616 38.6627L95.4458 37.6683Z" fill="black"/>
<path d="M137.226 33.6156L133.323 33.6622L133.355 34.7082L137.258 34.6616L137.226 33.6156Z" fill="#2F2E41"/>
<path d="M94.742 34.1225L90.8394 34.1691L90.8711 35.2151L94.7737 35.1685L94.742 34.1225Z" fill="#2F2E41"/>
<path d="M137.226 33.6156L133.323 33.6622L133.355 34.7082L137.258 34.6616L137.226 33.6156Z" fill="black"/>
<path d="M94.742 34.1225L90.8394 34.1691L90.8711 35.2151L94.7737 35.1685L94.742 34.1225Z" fill="black"/>
<path d="M133.047 36.5923L132.677 37.6122L136.483 38.1556L136.853 37.1357L133.047 36.5923Z" fill="#2F2E41"/>
<path d="M91.6132 30.6751L91.2437 31.695L95.0499 32.2384L95.4194 31.2185L91.6132 30.6751Z" fill="#2F2E41"/>
<path d="M133.047 36.5923L132.677 37.6122L136.483 38.1556L136.853 37.1357L133.047 36.5923Z" fill="black"/>
<path d="M91.6132 30.6751L91.2437 31.695L95.0499 32.2384L95.4194 31.2185L91.6132 30.6751Z" fill="black"/>
<path d="M131.603 39.4691L130.843 40.4001L134.318 41.5166L135.077 40.5856L131.603 39.4691Z" fill="#2F2E41"/>
<path d="M93.7788 27.3141L93.0195 28.2452L96.4942 29.3617L97.2535 28.4306L93.7788 27.3141Z" fill="#2F2E41"/>
<path d="M131.603 39.4691L130.843 40.4001L134.318 41.5166L135.077 40.5856L131.603 39.4691Z" fill="black"/>
<path d="M93.7788 27.3141L93.0195 28.2452L96.4942 29.3617L97.2535 28.4306L93.7788 27.3141Z" fill="black"/>
<path d="M129.32 41.8351L128.245 42.6339L131.226 44.2159L132.302 43.4171L129.32 41.8351Z" fill="#2F2E41"/>
<path d="M96.8706 24.6148L95.7949 25.4136L98.7761 26.9956L99.8518 26.1969L96.8706 24.6148Z" fill="#2F2E41"/>
<path d="M129.32 41.8351L128.245 42.6339L131.226 44.2159L132.302 43.4171L129.32 41.8351Z" fill="black"/>
<path d="M96.8706 24.6148L95.7949 25.4136L98.7761 26.9956L99.8518 26.1969L96.8706 24.6148Z" fill="black"/>
<path d="M126.435 43.716L125.112 44.3516L127.484 46.2976L128.807 45.6619L126.435 43.716Z" fill="#2F2E41"/>
<path d="M100.613 22.5331L99.2896 23.1688L101.661 25.1147L102.985 24.4791L100.613 22.5331Z" fill="#2F2E41"/>
<path d="M126.435 43.716L125.112 44.3516L127.484 46.2976L128.807 45.6619L126.435 43.716Z" fill="black"/>
<path d="M100.613 22.5331L99.2896 23.1688L101.661 25.1147L102.985 24.4791L100.613 22.5331Z" fill="black"/>
<path d="M123.017 45.1516L121.509 45.5969L123.171 47.8141L124.678 47.3688L123.017 45.1516Z" fill="#2F2E41"/>
<path d="M104.926 21.0167L103.418 21.462L105.08 23.6791L106.588 23.2338L104.926 21.0167Z" fill="#2F2E41"/>
<path d="M123.017 45.1516L121.509 45.5969L123.171 47.8141L124.678 47.3688L123.017 45.1516Z" fill="black"/>
<path d="M104.926 21.0167L103.418 21.462L105.08 23.6791L106.588 23.2338L104.926 21.0167Z" fill="black"/>
<path d="M118.85 46.1574L117.22 46.3735L118.026 48.771L119.657 48.5549L118.85 46.1574Z" fill="#2F2E41"/>
<path d="M110.071 20.0597L108.44 20.2758L109.247 22.6732L110.877 22.4572L110.071 20.0597Z" fill="#2F2E41"/>
<path d="M118.85 46.1574L117.22 46.3735L118.026 48.771L119.657 48.5549L118.85 46.1574Z" fill="black"/>
<path d="M110.071 20.0597L108.44 20.2758L109.247 22.6732L110.877 22.4572L110.071 20.0597Z" fill="black"/>
<path d="M109.552 46.205L108.809 48.6104L110.444 48.8096L111.188 46.4042L109.552 46.205Z" fill="#2F2E41"/>
<path d="M117.653 20.0212L116.909 22.4266L118.545 22.6258L119.288 20.2204L117.653 20.0212Z" fill="#2F2E41"/>
<path d="M109.552 46.205L108.809 48.6104L110.444 48.8096L111.188 46.4042L109.552 46.205Z" fill="black"/>
<path d="M117.653 20.0212L116.909 22.4266L118.545 22.6258L119.288 20.2204L117.653 20.0212Z" fill="black"/>
</g>
<defs>
<clipPath id="clip0_81_1021">
<rect width="409" height="270" fill="white"/>
</clipPath>
</defs>
</svg>
